solid OpenSCAD_Model
  facet normal 1 0 0
    outer loop
      vertex 19 85 22
      vertex 19 80.9795 12.4955
      vertex 19 85 2
    endloop
  endfacet
  facet normal 1 0 0
    outer loop
      vertex 19 85 22
      vertex 19 80.4946 14.4102
      vertex 19 80.9795 12.4955
    endloop
  endfacet
  facet normal 1 0 0
    outer loop
      vertex 19 85 22
      vertex 19 79.4143 16.0637
      vertex 19 80.4946 14.4102
    endloop
  endfacet
  facet normal 1 0 0
    outer loop
      vertex 19 85 22
      vertex 19 77.8557 17.2768
      vertex 19 79.4143 16.0637
    endloop
  endfacet
  facet normal 1 0 0
    outer loop
      vertex 19 85 22
      vertex 19 75.9876 17.9182
      vertex 19 77.8557 17.2768
    endloop
  endfacet
  facet normal 1 0 0
    outer loop
      vertex 19 85 22
      vertex 19 74.0124 17.9182
      vertex 19 75.9876 17.9182
    endloop
  endfacet
  facet normal 1 -0 0
    outer loop
      vertex 19 65 22
      vertex 19 74.0124 17.9182
      vertex 19 85 22
    endloop
  endfacet
  facet normal 1 0 0
    outer loop
      vertex 19 69.5054 14.4102
      vertex 19 65 22
      vertex 19 69.0205 12.4955
    endloop
  endfacet
  facet normal 1 0 0
    outer loop
      vertex 19 70.5857 16.0637
      vertex 19 65 22
      vertex 19 69.5054 14.4102
    endloop
  endfacet
  facet normal 1 0 0
    outer loop
      vertex 19 72.1443 17.2768
      vertex 19 65 22
      vertex 19 70.5857 16.0637
    endloop
  endfacet
  facet normal 1 0 0
    outer loop
      vertex 19 74.0124 17.9182
      vertex 19 65 22
      vertex 19 72.1443 17.2768
    endloop
  endfacet
  facet normal 1 -0 0
    outer loop
      vertex 19 80.8164 10.5271
      vertex 19 85 2
      vertex 19 80.9795 12.4955
    endloop
  endfacet
  facet normal 1 -0 0
    outer loop
      vertex 19 80.023 8.71831
      vertex 19 85 2
      vertex 19 80.8164 10.5271
    endloop
  endfacet
  facet normal 1 -0 0
    outer loop
      vertex 19 78.6853 7.26516
      vertex 19 85 2
      vertex 19 80.023 8.71831
    endloop
  endfacet
  facet normal 1 -0 0
    outer loop
      vertex 19 76.9482 6.3251
      vertex 19 85 2
      vertex 19 78.6853 7.26516
    endloop
  endfacet
  facet normal 1 -0 0
    outer loop
      vertex 19 75 6
      vertex 19 85 2
      vertex 19 76.9482 6.3251
    endloop
  endfacet
  facet normal 1 0 0
    outer loop
      vertex 19 65 2
      vertex 19 75 6
      vertex 19 73.0518 6.3251
    endloop
  endfacet
  facet normal 1 0 0
    outer loop
      vertex 19 65 2
      vertex 19 69.0205 12.4955
      vertex 19 65 22
    endloop
  endfacet
  facet normal 1 0 0
    outer loop
      vertex 19 75 6
      vertex 19 65 2
      vertex 19 85 2
    endloop
  endfacet
  facet normal 1 0 0
    outer loop
      vertex 19 71.3147 7.26516
      vertex 19 65 2
      vertex 19 73.0518 6.3251
    endloop
  endfacet
  facet normal 1 0 0
    outer loop
      vertex 19 69.977 8.71831
      vertex 19 65 2
      vertex 19 71.3147 7.26516
    endloop
  endfacet
  facet normal 1 0 0
    outer loop
      vertex 19 69.1836 10.5271
      vertex 19 65 2
      vertex 19 69.977 8.71831
    endloop
  endfacet
  facet normal 1 0 0
    outer loop
      vertex 19 69.0205 12.4955
      vertex 19 65 2
      vertex 19 69.1836 10.5271
    endloop
  endfacet
  facet normal -0 0 1
    outer loop
      vertex 15 85 22
      vertex 19 65 22
      vertex 19 85 22
    endloop
  endfacet
  facet normal 0 0 1
    outer loop
      vertex 19 65 22
      vertex 15 85 22
      vertex 15 65 22
    endloop
  endfacet
  facet normal 0 0 1
    outer loop
      vertex 144.875 120.125 2
      vertex 135 85 2
      vertex 144.875 29.875 2
    endloop
  endfacet
  facet normal 0 0 1
    outer loop
      vertex 144.875 120.125 2
      vertex 131 85 2
      vertex 135 85 2
    endloop
  endfacet
  facet normal 0 0 1
    outer loop
      vertex 131 85 2
      vertex 19 85 2
      vertex 131 65 2
    endloop
  endfacet
  facet normal 0 0 1
    outer loop
      vertex 144.875 120.125 2
      vertex 19 85 2
      vertex 131 85 2
    endloop
  endfacet
  facet normal -0 0 1
    outer loop
      vertex 5.125 120.125 2
      vertex 19 85 2
      vertex 144.875 120.125 2
    endloop
  endfacet
  facet normal 0 0 1
    outer loop
      vertex 15 85 2
      vertex 5.125 120.125 2
      vertex 15 65 2
    endloop
  endfacet
  facet normal 0 0 1
    outer loop
      vertex 19 85 2
      vertex 5.125 120.125 2
      vertex 15 85 2
    endloop
  endfacet
  facet normal 0 0 1
    outer loop
      vertex 144.875 120.125 2
      vertex 150 150 2
      vertex 144.875 144.875 2
    endloop
  endfacet
  facet normal 0 0 1
    outer loop
      vertex 150 150 2
      vertex 5.125 144.875 2
      vertex 144.875 144.875 2
    endloop
  endfacet
  facet normal 0 0 1
    outer loop
      vertex 0 150 2
      vertex 5.125 120.125 2
      vertex 5.125 144.875 2
    endloop
  endfacet
  facet normal 0 0 1
    outer loop
      vertex 5.125 120.125 2
      vertex 0 150 2
      vertex 5.125 29.875 2
    endloop
  endfacet
  facet normal 0 0 1
    outer loop
      vertex 0 0 2
      vertex 5.125 29.875 2
      vertex 0 150 2
    endloop
  endfacet
  facet normal -0 0 1
    outer loop
      vertex 0 150 2
      vertex 5.125 144.875 2
      vertex 150 150 2
    endloop
  endfacet
  facet normal 0 0 1
    outer loop
      vertex 150 150 2
      vertex 144.875 120.125 2
      vertex 150 0 2
    endloop
  endfacet
  facet normal -0 0 1
    outer loop
      vertex 144.875 29.875 2
      vertex 150 0 2
      vertex 144.875 120.125 2
    endloop
  endfacet
  facet normal -0 0 1
    outer loop
      vertex 144.875 5.125 2
      vertex 150 0 2
      vertex 144.875 29.875 2
    endloop
  endfacet
  facet normal -0 0 1
    outer loop
      vertex 5.125 5.125 2
      vertex 150 0 2
      vertex 144.875 5.125 2
    endloop
  endfacet
  facet normal 0 0 1
    outer loop
      vertex 5.125 5.125 2
      vertex 0 0 2
      vertex 150 0 2
    endloop
  endfacet
  facet normal 0 0 1
    outer loop
      vertex 5.125 29.875 2
      vertex 0 0 2
      vertex 5.125 5.125 2
    endloop
  endfacet
  facet normal -0 0 1
    outer loop
      vertex 135 65 2
      vertex 144.875 29.875 2
      vertex 135 85 2
    endloop
  endfacet
  facet normal -0 0 1
    outer loop
      vertex 131 65 2
      vertex 144.875 29.875 2
      vertex 135 65 2
    endloop
  endfacet
  facet normal 0 0 1
    outer loop
      vertex 19 65 2
      vertex 131 65 2
      vertex 19 85 2
    endloop
  endfacet
  facet normal 0 0 1
    outer loop
      vertex 131 65 2
      vertex 19 65 2
      vertex 144.875 29.875 2
    endloop
  endfacet
  facet normal 0 0 1
    outer loop
      vertex 5.125 29.875 2
      vertex 19 65 2
      vertex 15 65 2
    endloop
  endfacet
  facet normal 0 0 1
    outer loop
      vertex 19 65 2
      vertex 5.125 29.875 2
      vertex 144.875 29.875 2
    endloop
  endfacet
  facet normal 0 0 1
    outer loop
      vertex 5.125 29.875 2
      vertex 15 65 2
      vertex 5.125 120.125 2
    endloop
  endfacet
  facet normal -1 0 0
    outer loop
      vertex 15 85 2
      vertex 15 80.9795 12.4955
      vertex 15 85 22
    endloop
  endfacet
  facet normal -1 0 0
    outer loop
      vertex 15 85 2
      vertex 15 80.8164 10.5271
      vertex 15 80.9795 12.4955
    endloop
  endfacet
  facet normal -1 0 0
    outer loop
      vertex 15 85 2
      vertex 15 80.023 8.71831
      vertex 15 80.8164 10.5271
    endloop
  endfacet
  facet normal -1 0 0
    outer loop
      vertex 15 85 2
      vertex 15 78.6853 7.26516
      vertex 15 80.023 8.71831
    endloop
  endfacet
  facet normal -1 0 0
    outer loop
      vertex 15 85 2
      vertex 15 76.9482 6.3251
      vertex 15 78.6853 7.26516
    endloop
  endfacet
  facet normal -1 0 0
    outer loop
      vertex 15 85 2
      vertex 15 75 6
      vertex 15 76.9482 6.3251
    endloop
  endfacet
  facet normal -1 0 0
    outer loop
      vertex 15 65 2
      vertex 15 75 6
      vertex 15 85 2
    endloop
  endfacet
  facet normal -1 -0 0
    outer loop
      vertex 15 69.1836 10.5271
      vertex 15 65 2
      vertex 15 69.0205 12.4955
    endloop
  endfacet
  facet normal -1 -0 0
    outer loop
      vertex 15 69.977 8.71831
      vertex 15 65 2
      vertex 15 69.1836 10.5271
    endloop
  endfacet
  facet normal -1 -0 0
    outer loop
      vertex 15 71.3147 7.26516
      vertex 15 65 2
      vertex 15 69.977 8.71831
    endloop
  endfacet
  facet normal -1 -0 0
    outer loop
      vertex 15 73.0518 6.3251
      vertex 15 65 2
      vertex 15 71.3147 7.26516
    endloop
  endfacet
  facet normal -1 -0 0
    outer loop
      vertex 15 75 6
      vertex 15 65 2
      vertex 15 73.0518 6.3251
    endloop
  endfacet
  facet normal -1 0 0
    outer loop
      vertex 15 80.4946 14.4102
      vertex 15 85 22
      vertex 15 80.9795 12.4955
    endloop
  endfacet
  facet normal -1 0 0
    outer loop
      vertex 15 79.4143 16.0637
      vertex 15 85 22
      vertex 15 80.4946 14.4102
    endloop
  endfacet
  facet normal -1 0 0
    outer loop
      vertex 15 77.8557 17.2768
      vertex 15 85 22
      vertex 15 79.4143 16.0637
    endloop
  endfacet
  facet normal -1 0 0
    outer loop
      vertex 15 75.9876 17.9182
      vertex 15 85 22
      vertex 15 77.8557 17.2768
    endloop
  endfacet
  facet normal -1 0 0
    outer loop
      vertex 15 74.0124 17.9182
      vertex 15 85 22
      vertex 15 75.9876 17.9182
    endloop
  endfacet
  facet normal -1 0 0
    outer loop
      vertex 15 65 22
      vertex 15 74.0124 17.9182
      vertex 15 72.1443 17.2768
    endloop
  endfacet
  facet normal -1 0 0
    outer loop
      vertex 15 65 22
      vertex 15 69.0205 12.4955
      vertex 15 65 2
    endloop
  endfacet
  facet normal -1 0 0
    outer loop
      vertex 15 74.0124 17.9182
      vertex 15 65 22
      vertex 15 85 22
    endloop
  endfacet
  facet normal -1 0 0
    outer loop
      vertex 15 70.5857 16.0637
      vertex 15 65 22
      vertex 15 72.1443 17.2768
    endloop
  endfacet
  facet normal -1 0 0
    outer loop
      vertex 15 69.5054 14.4102
      vertex 15 65 22
      vertex 15 70.5857 16.0637
    endloop
  endfacet
  facet normal -1 0 0
    outer loop
      vertex 15 69.0205 12.4955
      vertex 15 65 22
      vertex 15 69.5054 14.4102
    endloop
  endfacet
  facet normal 0 1 -0
    outer loop
      vertex 19 85 2
      vertex 15 85 22
      vertex 19 85 22
    endloop
  endfacet
  facet normal 0 1 0
    outer loop
      vertex 15 85 22
      vertex 19 85 2
      vertex 15 85 2
    endloop
  endfacet
  facet normal 0 -1 0
    outer loop
      vertex 15 65 2
      vertex 19 65 22
      vertex 15 65 22
    endloop
  endfacet
  facet normal 0 -1 -0
    outer loop
      vertex 19 65 22
      vertex 15 65 2
      vertex 19 65 2
    endloop
  endfacet
  facet normal 0 -0.475943 0.879476
    outer loop
      vertex 15 78.6853 7.26516
      vertex 19 76.9482 6.3251
      vertex 19 78.6853 7.26516
    endloop
  endfacet
  facet normal 0 -0.475943 0.879476
    outer loop
      vertex 19 76.9482 6.3251
      vertex 15 78.6853 7.26516
      vertex 15 76.9482 6.3251
    endloop
  endfacet
  facet normal 0 -0.969396 -0.245501
    outer loop
      vertex 15 80.9795 12.4955
      vertex 19 80.4946 14.4102
      vertex 15 80.4946 14.4102
    endloop
  endfacet
  facet normal 0 -0.969396 -0.245501
    outer loop
      vertex 19 80.4946 14.4102
      vertex 15 80.9795 12.4955
      vertex 19 80.9795 12.4955
    endloop
  endfacet
  facet normal 0 -0.915775 0.401692
    outer loop
      vertex 15 80.023 8.71831
      vertex 19 80.8164 10.5271
      vertex 15 80.8164 10.5271
    endloop
  endfacet
  facet normal 0 -0.915775 0.401692
    outer loop
      vertex 19 80.8164 10.5271
      vertex 15 80.023 8.71831
      vertex 19 80.023 8.71831
    endloop
  endfacet
  facet normal 0 -0.164596 0.986361
    outer loop
      vertex 15 76.9482 6.3251
      vertex 19 75 6
      vertex 19 76.9482 6.3251
    endloop
  endfacet
  facet normal 0 -0.164596 0.986361
    outer loop
      vertex 19 75 6
      vertex 15 76.9482 6.3251
      vertex 15 75 6
    endloop
  endfacet
  facet normal 0 -0.837163 -0.546953
    outer loop
      vertex 15 80.4946 14.4102
      vertex 19 79.4143 16.0637
      vertex 15 79.4143 16.0637
    endloop
  endfacet
  facet normal 0 -0.837163 -0.546953
    outer loop
      vertex 19 79.4143 16.0637
      vertex 15 80.4946 14.4102
      vertex 19 80.4946 14.4102
    endloop
  endfacet
  facet normal 0 -0.324736 -0.945805
    outer loop
      vertex 15 75.9876 17.9182
      vertex 19 77.8557 17.2768
      vertex 19 75.9876 17.9182
    endloop
  endfacet
  facet normal -0 -0.324736 -0.945805
    outer loop
      vertex 19 77.8557 17.2768
      vertex 15 75.9876 17.9182
      vertex 15 77.8557 17.2768
    endloop
  endfacet
  facet normal 0 0 -1
    outer loop
      vertex 15 74.0124 17.9182
      vertex 19 75.9876 17.9182
      vertex 19 74.0124 17.9182
    endloop
  endfacet
  facet normal -0 0 -1
    outer loop
      vertex 19 75.9876 17.9182
      vertex 15 74.0124 17.9182
      vertex 15 75.9876 17.9182
    endloop
  endfacet
  facet normal -0 0.475943 0.879476
    outer loop
      vertex 15 73.0518 6.3251
      vertex 19 71.3147 7.26516
      vertex 19 73.0518 6.3251
    endloop
  endfacet
  facet normal 0 0.475943 0.879476
    outer loop
      vertex 19 71.3147 7.26516
      vertex 15 73.0518 6.3251
      vertex 15 71.3147 7.26516
    endloop
  endfacet
  facet normal 0 -0.735729 0.677276
    outer loop
      vertex 15 78.6853 7.26516
      vertex 19 80.023 8.71831
      vertex 15 80.023 8.71831
    endloop
  endfacet
  facet normal 0 -0.735729 0.677276
    outer loop
      vertex 19 80.023 8.71831
      vertex 15 78.6853 7.26516
      vertex 19 78.6853 7.26516
    endloop
  endfacet
  facet normal 0 0.324736 -0.945805
    outer loop
      vertex 15 72.1443 17.2768
      vertex 19 74.0124 17.9182
      vertex 19 72.1443 17.2768
    endloop
  endfacet
  facet normal 0 0.324736 -0.945805
    outer loop
      vertex 19 74.0124 17.9182
      vertex 15 72.1443 17.2768
      vertex 15 74.0124 17.9182
    endloop
  endfacet
  facet normal 0 0.915775 0.401692
    outer loop
      vertex 19 69.977 8.71831
      vertex 15 69.1836 10.5271
      vertex 19 69.1836 10.5271
    endloop
  endfacet
  facet normal 0 0.915775 0.401692
    outer loop
      vertex 15 69.1836 10.5271
      vertex 19 69.977 8.71831
      vertex 15 69.977 8.71831
    endloop
  endfacet
  facet normal -0 0.164596 0.986361
    outer loop
      vertex 15 75 6
      vertex 19 73.0518 6.3251
      vertex 19 75 6
    endloop
  endfacet
  facet normal 0 0.164596 0.986361
    outer loop
      vertex 19 73.0518 6.3251
      vertex 15 75 6
      vertex 15 73.0518 6.3251
    endloop
  endfacet
  facet normal 0 -0.61421 -0.789142
    outer loop
      vertex 15 77.8557 17.2768
      vertex 19 79.4143 16.0637
      vertex 19 77.8557 17.2768
    endloop
  endfacet
  facet normal -0 -0.61421 -0.789142
    outer loop
      vertex 19 79.4143 16.0637
      vertex 15 77.8557 17.2768
      vertex 15 79.4143 16.0637
    endloop
  endfacet
  facet normal 0 0.61421 -0.789142
    outer loop
      vertex 15 70.5857 16.0637
      vertex 19 72.1443 17.2768
      vertex 19 70.5857 16.0637
    endloop
  endfacet
  facet normal 0 0.61421 -0.789142
    outer loop
      vertex 19 72.1443 17.2768
      vertex 15 70.5857 16.0637
      vertex 15 72.1443 17.2768
    endloop
  endfacet
  facet normal 0 0.735729 0.677276
    outer loop
      vertex 19 71.3147 7.26516
      vertex 15 69.977 8.71831
      vertex 19 69.977 8.71831
    endloop
  endfacet
  facet normal 0 0.735729 0.677276
    outer loop
      vertex 15 69.977 8.71831
      vertex 19 71.3147 7.26516
      vertex 15 71.3147 7.26516
    endloop
  endfacet
  facet normal 0 -0.996585 0.0825762
    outer loop
      vertex 15 80.8164 10.5271
      vertex 19 80.9795 12.4955
      vertex 15 80.9795 12.4955
    endloop
  endfacet
  facet normal 0 -0.996585 0.0825762
    outer loop
      vertex 19 80.9795 12.4955
      vertex 15 80.8164 10.5271
      vertex 19 80.8164 10.5271
    endloop
  endfacet
  facet normal 0 0.969396 -0.245501
    outer loop
      vertex 19 69.0205 12.4955
      vertex 15 69.5054 14.4102
      vertex 19 69.5054 14.4102
    endloop
  endfacet
  facet normal 0 0.969396 -0.245501
    outer loop
      vertex 15 69.5054 14.4102
      vertex 19 69.0205 12.4955
      vertex 15 69.0205 12.4955
    endloop
  endfacet
  facet normal 0 0.996585 0.0825762
    outer loop
      vertex 19 69.1836 10.5271
      vertex 15 69.0205 12.4955
      vertex 19 69.0205 12.4955
    endloop
  endfacet
  facet normal 0 0.996585 0.0825762
    outer loop
      vertex 15 69.0205 12.4955
      vertex 19 69.1836 10.5271
      vertex 15 69.1836 10.5271
    endloop
  endfacet
  facet normal 0 0.837163 -0.546953
    outer loop
      vertex 19 69.5054 14.4102
      vertex 15 70.5857 16.0637
      vertex 19 70.5857 16.0637
    endloop
  endfacet
  facet normal 0 0.837163 -0.546953
    outer loop
      vertex 15 70.5857 16.0637
      vertex 19 69.5054 14.4102
      vertex 15 69.5054 14.4102
    endloop
  endfacet
  facet normal 1 0 0
    outer loop
      vertex 135 85 22
      vertex 135 80.9795 12.4955
      vertex 135 85 2
    endloop
  endfacet
  facet normal 1 0 0
    outer loop
      vertex 135 85 22
      vertex 135 80.4946 14.4102
      vertex 135 80.9795 12.4955
    endloop
  endfacet
  facet normal 1 0 0
    outer loop
      vertex 135 85 22
      vertex 135 79.4143 16.0637
      vertex 135 80.4946 14.4102
    endloop
  endfacet
  facet normal 1 0 0
    outer loop
      vertex 135 85 22
      vertex 135 77.8557 17.2768
      vertex 135 79.4143 16.0637
    endloop
  endfacet
  facet normal 1 0 0
    outer loop
      vertex 135 85 22
      vertex 135 75.9876 17.9182
      vertex 135 77.8557 17.2768
    endloop
  endfacet
  facet normal 1 0 0
    outer loop
      vertex 135 85 22
      vertex 135 74.0124 17.9182
      vertex 135 75.9876 17.9182
    endloop
  endfacet
  facet normal 1 -0 0
    outer loop
      vertex 135 65 22
      vertex 135 74.0124 17.9182
      vertex 135 85 22
    endloop
  endfacet
  facet normal 1 0 0
    outer loop
      vertex 135 69.5054 14.4102
      vertex 135 65 22
      vertex 135 69.0205 12.4955
    endloop
  endfacet
  facet normal 1 0 0
    outer loop
      vertex 135 70.5857 16.0637
      vertex 135 65 22
      vertex 135 69.5054 14.4102
    endloop
  endfacet
  facet normal 1 0 0
    outer loop
      vertex 135 72.1443 17.2768
      vertex 135 65 22
      vertex 135 70.5857 16.0637
    endloop
  endfacet
  facet normal 1 0 0
    outer loop
      vertex 135 74.0124 17.9182
      vertex 135 65 22
      vertex 135 72.1443 17.2768
    endloop
  endfacet
  facet normal 1 -0 0
    outer loop
      vertex 135 80.8164 10.5271
      vertex 135 85 2
      vertex 135 80.9795 12.4955
    endloop
  endfacet
  facet normal 1 -0 0
    outer loop
      vertex 135 80.023 8.71831
      vertex 135 85 2
      vertex 135 80.8164 10.5271
    endloop
  endfacet
  facet normal 1 -0 0
    outer loop
      vertex 135 78.6853 7.26516
      vertex 135 85 2
      vertex 135 80.023 8.71831
    endloop
  endfacet
  facet normal 1 -0 0
    outer loop
      vertex 135 76.9482 6.3251
      vertex 135 85 2
      vertex 135 78.6853 7.26516
    endloop
  endfacet
  facet normal 1 -0 0
    outer loop
      vertex 135 75 6
      vertex 135 85 2
      vertex 135 76.9482 6.3251
    endloop
  endfacet
  facet normal 1 0 0
    outer loop
      vertex 135 65 2
      vertex 135 75 6
      vertex 135 73.0518 6.3251
    endloop
  endfacet
  facet normal 1 0 0
    outer loop
      vertex 135 65 2
      vertex 135 69.0205 12.4955
      vertex 135 65 22
    endloop
  endfacet
  facet normal 1 0 0
    outer loop
      vertex 135 75 6
      vertex 135 65 2
      vertex 135 85 2
    endloop
  endfacet
  facet normal 1 0 0
    outer loop
      vertex 135 71.3147 7.26516
      vertex 135 65 2
      vertex 135 73.0518 6.3251
    endloop
  endfacet
  facet normal 1 0 0
    outer loop
      vertex 135 69.977 8.71831
      vertex 135 65 2
      vertex 135 71.3147 7.26516
    endloop
  endfacet
  facet normal 1 0 0
    outer loop
      vertex 135 69.1836 10.5271
      vertex 135 65 2
      vertex 135 69.977 8.71831
    endloop
  endfacet
  facet normal 1 0 0
    outer loop
      vertex 135 69.0205 12.4955
      vertex 135 65 2
      vertex 135 69.1836 10.5271
    endloop
  endfacet
  facet normal -0 0 1
    outer loop
      vertex 131 85 22
      vertex 135 65 22
      vertex 135 85 22
    endloop
  endfacet
  facet normal 0 0 1
    outer loop
      vertex 135 65 22
      vertex 131 85 22
      vertex 131 65 22
    endloop
  endfacet
  facet normal -1 0 0
    outer loop
      vertex 131 85 2
      vertex 131 80.9795 12.4955
      vertex 131 85 22
    endloop
  endfacet
  facet normal -1 0 0
    outer loop
      vertex 131 85 2
      vertex 131 80.8164 10.5271
      vertex 131 80.9795 12.4955
    endloop
  endfacet
  facet normal -1 0 0
    outer loop
      vertex 131 85 2
      vertex 131 80.023 8.71831
      vertex 131 80.8164 10.5271
    endloop
  endfacet
  facet normal -1 0 0
    outer loop
      vertex 131 85 2
      vertex 131 78.6853 7.26516
      vertex 131 80.023 8.71831
    endloop
  endfacet
  facet normal -1 0 0
    outer loop
      vertex 131 85 2
      vertex 131 76.9482 6.3251
      vertex 131 78.6853 7.26516
    endloop
  endfacet
  facet normal -1 0 0
    outer loop
      vertex 131 85 2
      vertex 131 75 6
      vertex 131 76.9482 6.3251
    endloop
  endfacet
  facet normal -1 0 0
    outer loop
      vertex 131 65 2
      vertex 131 75 6
      vertex 131 85 2
    endloop
  endfacet
  facet normal -1 -0 0
    outer loop
      vertex 131 69.1836 10.5271
      vertex 131 65 2
      vertex 131 69.0205 12.4955
    endloop
  endfacet
  facet normal -1 -0 0
    outer loop
      vertex 131 69.977 8.71831
      vertex 131 65 2
      vertex 131 69.1836 10.5271
    endloop
  endfacet
  facet normal -1 -0 0
    outer loop
      vertex 131 71.3147 7.26516
      vertex 131 65 2
      vertex 131 69.977 8.71831
    endloop
  endfacet
  facet normal -1 -0 0
    outer loop
      vertex 131 73.0518 6.3251
      vertex 131 65 2
      vertex 131 71.3147 7.26516
    endloop
  endfacet
  facet normal -1 -0 0
    outer loop
      vertex 131 75 6
      vertex 131 65 2
      vertex 131 73.0518 6.3251
    endloop
  endfacet
  facet normal -1 0 0
    outer loop
      vertex 131 80.4946 14.4102
      vertex 131 85 22
      vertex 131 80.9795 12.4955
    endloop
  endfacet
  facet normal -1 0 0
    outer loop
      vertex 131 79.4143 16.0637
      vertex 131 85 22
      vertex 131 80.4946 14.4102
    endloop
  endfacet
  facet normal -1 0 0
    outer loop
      vertex 131 77.8557 17.2768
      vertex 131 85 22
      vertex 131 79.4143 16.0637
    endloop
  endfacet
  facet normal -1 0 0
    outer loop
      vertex 131 75.9876 17.9182
      vertex 131 85 22
      vertex 131 77.8557 17.2768
    endloop
  endfacet
  facet normal -1 0 0
    outer loop
      vertex 131 74.0124 17.9182
      vertex 131 85 22
      vertex 131 75.9876 17.9182
    endloop
  endfacet
  facet normal -1 0 0
    outer loop
      vertex 131 65 22
      vertex 131 74.0124 17.9182
      vertex 131 72.1443 17.2768
    endloop
  endfacet
  facet normal -1 0 0
    outer loop
      vertex 131 65 22
      vertex 131 69.0205 12.4955
      vertex 131 65 2
    endloop
  endfacet
  facet normal -1 0 0
    outer loop
      vertex 131 74.0124 17.9182
      vertex 131 65 22
      vertex 131 85 22
    endloop
  endfacet
  facet normal -1 0 0
    outer loop
      vertex 131 70.5857 16.0637
      vertex 131 65 22
      vertex 131 72.1443 17.2768
    endloop
  endfacet
  facet normal -1 0 0
    outer loop
      vertex 131 69.5054 14.4102
      vertex 131 65 22
      vertex 131 70.5857 16.0637
    endloop
  endfacet
  facet normal -1 0 0
    outer loop
      vertex 131 69.0205 12.4955
      vertex 131 65 22
      vertex 131 69.5054 14.4102
    endloop
  endfacet
  facet normal 0 1 -0
    outer loop
      vertex 135 85 2
      vertex 131 85 22
      vertex 135 85 22
    endloop
  endfacet
  facet normal 0 1 0
    outer loop
      vertex 131 85 22
      vertex 135 85 2
      vertex 131 85 2
    endloop
  endfacet
  facet normal 0 -1 0
    outer loop
      vertex 131 65 2
      vertex 135 65 22
      vertex 131 65 22
    endloop
  endfacet
  facet normal 0 -1 -0
    outer loop
      vertex 135 65 22
      vertex 131 65 2
      vertex 135 65 2
    endloop
  endfacet
  facet normal 0 -0.475943 0.879476
    outer loop
      vertex 131 78.6853 7.26516
      vertex 135 76.9482 6.3251
      vertex 135 78.6853 7.26516
    endloop
  endfacet
  facet normal 0 -0.475943 0.879476
    outer loop
      vertex 135 76.9482 6.3251
      vertex 131 78.6853 7.26516
      vertex 131 76.9482 6.3251
    endloop
  endfacet
  facet normal 0 -0.969396 -0.245501
    outer loop
      vertex 131 80.9795 12.4955
      vertex 135 80.4946 14.4102
      vertex 131 80.4946 14.4102
    endloop
  endfacet
  facet normal 0 -0.969396 -0.245501
    outer loop
      vertex 135 80.4946 14.4102
      vertex 131 80.9795 12.4955
      vertex 135 80.9795 12.4955
    endloop
  endfacet
  facet normal 0 -0.915775 0.401692
    outer loop
      vertex 131 80.023 8.71831
      vertex 135 80.8164 10.5271
      vertex 131 80.8164 10.5271
    endloop
  endfacet
  facet normal 0 -0.915775 0.401692
    outer loop
      vertex 135 80.8164 10.5271
      vertex 131 80.023 8.71831
      vertex 135 80.023 8.71831
    endloop
  endfacet
  facet normal 0 -0.164596 0.986361
    outer loop
      vertex 131 76.9482 6.3251
      vertex 135 75 6
      vertex 135 76.9482 6.3251
    endloop
  endfacet
  facet normal 0 -0.164596 0.986361
    outer loop
      vertex 135 75 6
      vertex 131 76.9482 6.3251
      vertex 131 75 6
    endloop
  endfacet
  facet normal 0 -0.837163 -0.546953
    outer loop
      vertex 131 80.4946 14.4102
      vertex 135 79.4143 16.0637
      vertex 131 79.4143 16.0637
    endloop
  endfacet
  facet normal 0 -0.837163 -0.546953
    outer loop
      vertex 135 79.4143 16.0637
      vertex 131 80.4946 14.4102
      vertex 135 80.4946 14.4102
    endloop
  endfacet
  facet normal 0 -0.324736 -0.945805
    outer loop
      vertex 131 75.9876 17.9182
      vertex 135 77.8557 17.2768
      vertex 135 75.9876 17.9182
    endloop
  endfacet
  facet normal -0 -0.324736 -0.945805
    outer loop
      vertex 135 77.8557 17.2768
      vertex 131 75.9876 17.9182
      vertex 131 77.8557 17.2768
    endloop
  endfacet
  facet normal 0 0 -1
    outer loop
      vertex 131 74.0124 17.9182
      vertex 135 75.9876 17.9182
      vertex 135 74.0124 17.9182
    endloop
  endfacet
  facet normal -0 0 -1
    outer loop
      vertex 135 75.9876 17.9182
      vertex 131 74.0124 17.9182
      vertex 131 75.9876 17.9182
    endloop
  endfacet
  facet normal -0 0.475943 0.879476
    outer loop
      vertex 131 73.0518 6.3251
      vertex 135 71.3147 7.26516
      vertex 135 73.0518 6.3251
    endloop
  endfacet
  facet normal 0 0.475943 0.879476
    outer loop
      vertex 135 71.3147 7.26516
      vertex 131 73.0518 6.3251
      vertex 131 71.3147 7.26516
    endloop
  endfacet
  facet normal 0 -0.735729 0.677276
    outer loop
      vertex 131 78.6853 7.26516
      vertex 135 80.023 8.71831
      vertex 131 80.023 8.71831
    endloop
  endfacet
  facet normal 0 -0.735729 0.677276
    outer loop
      vertex 135 80.023 8.71831
      vertex 131 78.6853 7.26516
      vertex 135 78.6853 7.26516
    endloop
  endfacet
  facet normal 0 0.324736 -0.945805
    outer loop
      vertex 131 72.1443 17.2768
      vertex 135 74.0124 17.9182
      vertex 135 72.1443 17.2768
    endloop
  endfacet
  facet normal 0 0.324736 -0.945805
    outer loop
      vertex 135 74.0124 17.9182
      vertex 131 72.1443 17.2768
      vertex 131 74.0124 17.9182
    endloop
  endfacet
  facet normal 0 0.915775 0.401692
    outer loop
      vertex 135 69.977 8.71831
      vertex 131 69.1836 10.5271
      vertex 135 69.1836 10.5271
    endloop
  endfacet
  facet normal 0 0.915775 0.401692
    outer loop
      vertex 131 69.1836 10.5271
      vertex 135 69.977 8.71831
      vertex 131 69.977 8.71831
    endloop
  endfacet
  facet normal -0 0.164596 0.986361
    outer loop
      vertex 131 75 6
      vertex 135 73.0518 6.3251
      vertex 135 75 6
    endloop
  endfacet
  facet normal 0 0.164596 0.986361
    outer loop
      vertex 135 73.0518 6.3251
      vertex 131 75 6
      vertex 131 73.0518 6.3251
    endloop
  endfacet
  facet normal 0 -0.61421 -0.789142
    outer loop
      vertex 131 77.8557 17.2768
      vertex 135 79.4143 16.0637
      vertex 135 77.8557 17.2768
    endloop
  endfacet
  facet normal -0 -0.61421 -0.789142
    outer loop
      vertex 135 79.4143 16.0637
      vertex 131 77.8557 17.2768
      vertex 131 79.4143 16.0637
    endloop
  endfacet
  facet normal 0 0.61421 -0.789142
    outer loop
      vertex 131 70.5857 16.0637
      vertex 135 72.1443 17.2768
      vertex 135 70.5857 16.0637
    endloop
  endfacet
  facet normal 0 0.61421 -0.789142
    outer loop
      vertex 135 72.1443 17.2768
      vertex 131 70.5857 16.0637
      vertex 131 72.1443 17.2768
    endloop
  endfacet
  facet normal 0 0.735729 0.677276
    outer loop
      vertex 135 71.3147 7.26516
      vertex 131 69.977 8.71831
      vertex 135 69.977 8.71831
    endloop
  endfacet
  facet normal 0 0.735729 0.677276
    outer loop
      vertex 131 69.977 8.71831
      vertex 135 71.3147 7.26516
      vertex 131 71.3147 7.26516
    endloop
  endfacet
  facet normal 0 -0.996585 0.0825762
    outer loop
      vertex 131 80.8164 10.5271
      vertex 135 80.9795 12.4955
      vertex 131 80.9795 12.4955
    endloop
  endfacet
  facet normal 0 -0.996585 0.0825762
    outer loop
      vertex 135 80.9795 12.4955
      vertex 131 80.8164 10.5271
      vertex 135 80.8164 10.5271
    endloop
  endfacet
  facet normal 0 0.969396 -0.245501
    outer loop
      vertex 135 69.0205 12.4955
      vertex 131 69.5054 14.4102
      vertex 135 69.5054 14.4102
    endloop
  endfacet
  facet normal 0 0.969396 -0.245501
    outer loop
      vertex 131 69.5054 14.4102
      vertex 135 69.0205 12.4955
      vertex 131 69.0205 12.4955
    endloop
  endfacet
  facet normal 0 0.996585 0.0825762
    outer loop
      vertex 135 69.1836 10.5271
      vertex 131 69.0205 12.4955
      vertex 135 69.0205 12.4955
    endloop
  endfacet
  facet normal 0 0.996585 0.0825762
    outer loop
      vertex 131 69.0205 12.4955
      vertex 135 69.1836 10.5271
      vertex 131 69.1836 10.5271
    endloop
  endfacet
  facet normal 0 0.837163 -0.546953
    outer loop
      vertex 135 69.5054 14.4102
      vertex 131 70.5857 16.0637
      vertex 135 70.5857 16.0637
    endloop
  endfacet
  facet normal 0 0.837163 -0.546953
    outer loop
      vertex 131 70.5857 16.0637
      vertex 135 69.5054 14.4102
      vertex 131 69.5054 14.4102
    endloop
  endfacet
  facet normal 1 -0 0
    outer loop
      vertex 150 0 2
      vertex 150 150 0
      vertex 150 150 2
    endloop
  endfacet
  facet normal 1 0 0
    outer loop
      vertex 150 150 0
      vertex 150 0 2
      vertex 150 0 0
    endloop
  endfacet
  facet normal 0 0 -1
    outer loop
      vertex 0 0 0
      vertex 150 150 0
      vertex 150 0 0
    endloop
  endfacet
  facet normal -0 0 -1
    outer loop
      vertex 150 150 0
      vertex 0 0 0
      vertex 0 150 0
    endloop
  endfacet
  facet normal -1 0 0
    outer loop
      vertex 0 0 0
      vertex 0 150 2
      vertex 0 150 0
    endloop
  endfacet
  facet normal -1 -0 0
    outer loop
      vertex 0 150 2
      vertex 0 0 0
      vertex 0 0 2
    endloop
  endfacet
  facet normal 0 1 -0
    outer loop
      vertex 150 150 0
      vertex 0 150 2
      vertex 150 150 2
    endloop
  endfacet
  facet normal 0 1 0
    outer loop
      vertex 0 150 2
      vertex 150 150 0
      vertex 0 150 0
    endloop
  endfacet
  facet normal 0 -1 0
    outer loop
      vertex 0 0 0
      vertex 150 0 2
      vertex 0 0 2
    endloop
  endfacet
  facet normal 0 -1 -0
    outer loop
      vertex 150 0 2
      vertex 0 0 0
      vertex 150 0 0
    endloop
  endfacet
  facet normal -0.943209 0 0.332199
    outer loop
      vertex 5.125 29.875 2
      vertex 12.125 12.125 21.875
      vertex 12.125 22.875 21.875
    endloop
  endfacet
  facet normal -0.943209 0 0.332199
    outer loop
      vertex 12.125 12.125 21.875
      vertex 5.125 29.875 2
      vertex 5.125 5.125 2
    endloop
  endfacet
  facet normal 0 -0.943209 0.332199
    outer loop
      vertex 5.125 5.125 2
      vertex 137.875 12.125 21.875
      vertex 12.125 12.125 21.875
    endloop
  endfacet
  facet normal 0 -0.943209 0.332199
    outer loop
      vertex 137.875 12.125 21.875
      vertex 5.125 5.125 2
      vertex 144.875 5.125 2
    endloop
  endfacet
  facet normal -0 0 1
    outer loop
      vertex 12.125 22.875 21.875
      vertex 137.875 12.125 21.875
      vertex 137.875 22.875 21.875
    endloop
  endfacet
  facet normal 0 0 1
    outer loop
      vertex 137.875 12.125 21.875
      vertex 12.125 22.875 21.875
      vertex 12.125 12.125 21.875
    endloop
  endfacet
  facet normal 0 0.943209 0.332199
    outer loop
      vertex 144.875 29.875 2
      vertex 12.125 22.875 21.875
      vertex 137.875 22.875 21.875
    endloop
  endfacet
  facet normal 0 0.943209 0.332199
    outer loop
      vertex 12.125 22.875 21.875
      vertex 144.875 29.875 2
      vertex 5.125 29.875 2
    endloop
  endfacet
  facet normal 0.943209 -0 0.332199
    outer loop
      vertex 137.875 12.125 21.875
      vertex 144.875 29.875 2
      vertex 137.875 22.875 21.875
    endloop
  endfacet
  facet normal 0.943209 0 0.332199
    outer loop
      vertex 144.875 29.875 2
      vertex 137.875 12.125 21.875
      vertex 144.875 5.125 2
    endloop
  endfacet
  facet normal -0.943209 0 0.332199
    outer loop
      vertex 5.125 144.875 2
      vertex 12.125 127.125 21.875
      vertex 12.125 137.875 21.875
    endloop
  endfacet
  facet normal -0.943209 0 0.332199
    outer loop
      vertex 12.125 127.125 21.875
      vertex 5.125 144.875 2
      vertex 5.125 120.125 2
    endloop
  endfacet
  facet normal -0 0 1
    outer loop
      vertex 12.125 137.875 21.875
      vertex 137.875 127.125 21.875
      vertex 137.875 137.875 21.875
    endloop
  endfacet
  facet normal 0 0 1
    outer loop
      vertex 137.875 127.125 21.875
      vertex 12.125 137.875 21.875
      vertex 12.125 127.125 21.875
    endloop
  endfacet
  facet normal 0 0.943209 0.332199
    outer loop
      vertex 144.875 144.875 2
      vertex 12.125 137.875 21.875
      vertex 137.875 137.875 21.875
    endloop
  endfacet
  facet normal 0 0.943209 0.332199
    outer loop
      vertex 12.125 137.875 21.875
      vertex 144.875 144.875 2
      vertex 5.125 144.875 2
    endloop
  endfacet
  facet normal 0 -0.943209 0.332199
    outer loop
      vertex 5.125 120.125 2
      vertex 137.875 127.125 21.875
      vertex 12.125 127.125 21.875
    endloop
  endfacet
  facet normal 0 -0.943209 0.332199
    outer loop
      vertex 137.875 127.125 21.875
      vertex 5.125 120.125 2
      vertex 144.875 120.125 2
    endloop
  endfacet
  facet normal 0.943209 -0 0.332199
    outer loop
      vertex 137.875 127.125 21.875
      vertex 144.875 144.875 2
      vertex 137.875 137.875 21.875
    endloop
  endfacet
  facet normal 0.943209 0 0.332199
    outer loop
      vertex 144.875 144.875 2
      vertex 137.875 127.125 21.875
      vertex 144.875 120.125 2
    endloop
  endfacet
endsolid OpenSCAD_Model
