solid OpenSCAD_Model
  facet normal 1 -0 0
    outer loop
      vertex 150 0 2
      vertex 150 150 0
      vertex 150 150 2
    endloop
  endfacet
  facet normal 1 0 0
    outer loop
      vertex 150 150 0
      vertex 150 0 2
      vertex 150 0 0
    endloop
  endfacet
  facet normal -0 0 1
    outer loop
      vertex 10.125 115.125 2
      vertex 139.875 34.875 2
      vertex 139.875 115.125 2
    endloop
  endfacet
  facet normal 0 0 1
    outer loop
      vertex 139.875 34.875 2
      vertex 10.125 115.125 2
      vertex 10.125 34.875 2
    endloop
  endfacet
  facet normal 0 0 1
    outer loop
      vertex 139.875 115.125 2
      vertex 150 150 2
      vertex 139.875 139.875 2
    endloop
  endfacet
  facet normal 0 0 1
    outer loop
      vertex 150 150 2
      vertex 10.125 139.875 2
      vertex 139.875 139.875 2
    endloop
  endfacet
  facet normal 0 0 1
    outer loop
      vertex 0 150 2
      vertex 10.125 115.125 2
      vertex 10.125 139.875 2
    endloop
  endfacet
  facet normal 0 0 1
    outer loop
      vertex 10.125 115.125 2
      vertex 0 150 2
      vertex 10.125 34.875 2
    endloop
  endfacet
  facet normal 0 0 1
    outer loop
      vertex 0 0 2
      vertex 10.125 34.875 2
      vertex 0 150 2
    endloop
  endfacet
  facet normal -0 0 1
    outer loop
      vertex 0 150 2
      vertex 10.125 139.875 2
      vertex 150 150 2
    endloop
  endfacet
  facet normal 0 0 1
    outer loop
      vertex 150 150 2
      vertex 139.875 115.125 2
      vertex 150 0 2
    endloop
  endfacet
  facet normal -0 0 1
    outer loop
      vertex 139.875 34.875 2
      vertex 150 0 2
      vertex 139.875 115.125 2
    endloop
  endfacet
  facet normal -0 0 1
    outer loop
      vertex 139.875 10.125 2
      vertex 150 0 2
      vertex 139.875 34.875 2
    endloop
  endfacet
  facet normal -0 0 1
    outer loop
      vertex 10.125 10.125 2
      vertex 150 0 2
      vertex 139.875 10.125 2
    endloop
  endfacet
  facet normal 0 0 1
    outer loop
      vertex 10.125 10.125 2
      vertex 0 0 2
      vertex 150 0 2
    endloop
  endfacet
  facet normal 0 0 1
    outer loop
      vertex 10.125 34.875 2
      vertex 0 0 2
      vertex 10.125 10.125 2
    endloop
  endfacet
  facet normal 0 0 -1
    outer loop
      vertex 0 0 0
      vertex 150 150 0
      vertex 150 0 0
    endloop
  endfacet
  facet normal -0 0 -1
    outer loop
      vertex 150 150 0
      vertex 0 0 0
      vertex 0 150 0
    endloop
  endfacet
  facet normal -1 0 0
    outer loop
      vertex 0 0 0
      vertex 0 150 2
      vertex 0 150 0
    endloop
  endfacet
  facet normal -1 -0 0
    outer loop
      vertex 0 150 2
      vertex 0 0 0
      vertex 0 0 2
    endloop
  endfacet
  facet normal 0 1 -0
    outer loop
      vertex 150 150 0
      vertex 0 150 2
      vertex 150 150 2
    endloop
  endfacet
  facet normal 0 1 0
    outer loop
      vertex 0 150 2
      vertex 150 150 0
      vertex 0 150 0
    endloop
  endfacet
  facet normal 0 -1 0
    outer loop
      vertex 0 0 0
      vertex 150 0 2
      vertex 0 0 2
    endloop
  endfacet
  facet normal 0 -1 -0
    outer loop
      vertex 150 0 2
      vertex 0 0 0
      vertex 150 0 0
    endloop
  endfacet
  facet normal -0.893301 0 0.449459
    outer loop
      vertex 10.125 34.875 2
      vertex 20.125 20.125 21.875
      vertex 20.125 24.875 21.875
    endloop
  endfacet
  facet normal -0.893301 0 0.449459
    outer loop
      vertex 20.125 20.125 21.875
      vertex 10.125 34.875 2
      vertex 10.125 10.125 2
    endloop
  endfacet
  facet normal -0 0 1
    outer loop
      vertex 20.125 24.875 21.875
      vertex 129.875 20.125 21.875
      vertex 129.875 24.875 21.875
    endloop
  endfacet
  facet normal 0 0 1
    outer loop
      vertex 129.875 20.125 21.875
      vertex 20.125 24.875 21.875
      vertex 20.125 20.125 21.875
    endloop
  endfacet
  facet normal 0 0.893301 0.449459
    outer loop
      vertex 139.875 34.875 2
      vertex 20.125 24.875 21.875
      vertex 129.875 24.875 21.875
    endloop
  endfacet
  facet normal 0 0.893301 0.449459
    outer loop
      vertex 20.125 24.875 21.875
      vertex 139.875 34.875 2
      vertex 10.125 34.875 2
    endloop
  endfacet
  facet normal 0 -0.893301 0.449459
    outer loop
      vertex 10.125 10.125 2
      vertex 129.875 20.125 21.875
      vertex 20.125 20.125 21.875
    endloop
  endfacet
  facet normal 0 -0.893301 0.449459
    outer loop
      vertex 129.875 20.125 21.875
      vertex 10.125 10.125 2
      vertex 139.875 10.125 2
    endloop
  endfacet
  facet normal 0.893301 -0 0.449459
    outer loop
      vertex 129.875 20.125 21.875
      vertex 139.875 34.875 2
      vertex 129.875 24.875 21.875
    endloop
  endfacet
  facet normal 0.893301 0 0.449459
    outer loop
      vertex 139.875 34.875 2
      vertex 129.875 20.125 21.875
      vertex 139.875 10.125 2
    endloop
  endfacet
  facet normal -0.893301 0 0.449459
    outer loop
      vertex 10.125 139.875 2
      vertex 20.125 125.125 21.875
      vertex 20.125 129.875 21.875
    endloop
  endfacet
  facet normal -0.893301 0 0.449459
    outer loop
      vertex 20.125 125.125 21.875
      vertex 10.125 139.875 2
      vertex 10.125 115.125 2
    endloop
  endfacet
  facet normal -0 0 1
    outer loop
      vertex 20.125 129.875 21.875
      vertex 129.875 125.125 21.875
      vertex 129.875 129.875 21.875
    endloop
  endfacet
  facet normal 0 0 1
    outer loop
      vertex 129.875 125.125 21.875
      vertex 20.125 129.875 21.875
      vertex 20.125 125.125 21.875
    endloop
  endfacet
  facet normal 0 0.893301 0.449459
    outer loop
      vertex 139.875 139.875 2
      vertex 20.125 129.875 21.875
      vertex 129.875 129.875 21.875
    endloop
  endfacet
  facet normal 0 0.893301 0.449459
    outer loop
      vertex 20.125 129.875 21.875
      vertex 139.875 139.875 2
      vertex 10.125 139.875 2
    endloop
  endfacet
  facet normal 0 -0.893301 0.449459
    outer loop
      vertex 10.125 115.125 2
      vertex 129.875 125.125 21.875
      vertex 20.125 125.125 21.875
    endloop
  endfacet
  facet normal 0 -0.893301 0.449459
    outer loop
      vertex 129.875 125.125 21.875
      vertex 10.125 115.125 2
      vertex 139.875 115.125 2
    endloop
  endfacet
  facet normal 0.893301 -0 0.449459
    outer loop
      vertex 129.875 125.125 21.875
      vertex 139.875 139.875 2
      vertex 129.875 129.875 21.875
    endloop
  endfacet
  facet normal 0.893301 0 0.449459
    outer loop
      vertex 139.875 139.875 2
      vertex 129.875 125.125 21.875
      vertex 139.875 115.125 2
    endloop
  endfacet
endsolid OpenSCAD_Model
