solid OpenSCAD_Model
  facet normal 1 -0 0
    outer loop
      vertex 150 0 2
      vertex 150 150 0
      vertex 150 150 2
    endloop
  endfacet
  facet normal 1 0 0
    outer loop
      vertex 150 150 0
      vertex 150 0 2
      vertex 150 0 0
    endloop
  endfacet
  facet normal 0 0 1
    outer loop
      vertex 142.5 50 2
      vertex 8.28409 36.7159 2
      vertex 141.716 36.7159 2
    endloop
  endfacet
  facet normal 0 0 1
    outer loop
      vertex 0 0 2
      vertex 8.28409 36.7159 2
      vertex 7.5 50 2
    endloop
  endfacet
  facet normal -0 0 1
    outer loop
      vertex 7.5 50 2
      vertex 8.28409 36.7159 2
      vertex 142.5 50 2
    endloop
  endfacet
  facet normal 0 0 1
    outer loop
      vertex 150 150 2
      vertex 142.5 100 2
      vertex 150 0 2
    endloop
  endfacet
  facet normal 0 0 1
    outer loop
      vertex 141.716 113.284 2
      vertex 150 150 2
      vertex 141.716 141.716 2
    endloop
  endfacet
  facet normal 0 0 1
    outer loop
      vertex 150 150 2
      vertex 8.28409 141.716 2
      vertex 141.716 141.716 2
    endloop
  endfacet
  facet normal 0 0 1
    outer loop
      vertex 0 150 2
      vertex 8.28409 113.284 2
      vertex 8.28409 141.716 2
    endloop
  endfacet
  facet normal 0 0 1
    outer loop
      vertex 7.5 100 2
      vertex 0 150 2
      vertex 7.5 50 2
    endloop
  endfacet
  facet normal 0 0 1
    outer loop
      vertex 8.28409 113.284 2
      vertex 0 150 2
      vertex 7.5 100 2
    endloop
  endfacet
  facet normal -0 0 1
    outer loop
      vertex 0 150 2
      vertex 8.28409 141.716 2
      vertex 150 150 2
    endloop
  endfacet
  facet normal -0 0 1
    outer loop
      vertex 142.5 50 2
      vertex 150 0 2
      vertex 142.5 100 2
    endloop
  endfacet
  facet normal -0 0 1
    outer loop
      vertex 141.716 36.7159 2
      vertex 150 0 2
      vertex 142.5 50 2
    endloop
  endfacet
  facet normal -0 0 1
    outer loop
      vertex 141.716 8.28409 2
      vertex 150 0 2
      vertex 141.716 36.7159 2
    endloop
  endfacet
  facet normal -0 0 1
    outer loop
      vertex 8.28409 8.28409 2
      vertex 150 0 2
      vertex 141.716 8.28409 2
    endloop
  endfacet
  facet normal 0 0 1
    outer loop
      vertex 0 0 2
      vertex 7.5 50 2
      vertex 0 150 2
    endloop
  endfacet
  facet normal 0 0 1
    outer loop
      vertex 8.28409 8.28409 2
      vertex 0 0 2
      vertex 150 0 2
    endloop
  endfacet
  facet normal 0 0 1
    outer loop
      vertex 8.28409 36.7159 2
      vertex 0 0 2
      vertex 8.28409 8.28409 2
    endloop
  endfacet
  facet normal 0 0 1
    outer loop
      vertex 150 150 2
      vertex 141.716 113.284 2
      vertex 142.5 100 2
    endloop
  endfacet
  facet normal -0 0 1
    outer loop
      vertex 8.28409 113.284 2
      vertex 142.5 100 2
      vertex 141.716 113.284 2
    endloop
  endfacet
  facet normal 0 0 1
    outer loop
      vertex 142.5 100 2
      vertex 8.28409 113.284 2
      vertex 7.5 100 2
    endloop
  endfacet
  facet normal 0 0 -1
    outer loop
      vertex 142.5 100 0
      vertex 9.875 114.875 0
      vertex 140.125 114.875 0
    endloop
  endfacet
  facet normal 0 0 -1
    outer loop
      vertex 0 150 0
      vertex 9.875 114.875 0
      vertex 7.5 100 0
    endloop
  endfacet
  facet normal 0 0 -1
    outer loop
      vertex 7.5 100 0
      vertex 9.875 114.875 0
      vertex 142.5 100 0
    endloop
  endfacet
  facet normal 0 0 -1
    outer loop
      vertex 150 0 0
      vertex 142.5 50 0
      vertex 150 150 0
    endloop
  endfacet
  facet normal 0 0 -1
    outer loop
      vertex 140.125 35.125 0
      vertex 150 0 0
      vertex 140.125 9.875 0
    endloop
  endfacet
  facet normal 0 0 -1
    outer loop
      vertex 150 0 0
      vertex 9.875 9.875 0
      vertex 140.125 9.875 0
    endloop
  endfacet
  facet normal 0 0 -1
    outer loop
      vertex 0 0 0
      vertex 9.875 35.125 0
      vertex 9.875 9.875 0
    endloop
  endfacet
  facet normal -0 0 -1
    outer loop
      vertex 7.5 50 0
      vertex 0 0 0
      vertex 7.5 100 0
    endloop
  endfacet
  facet normal -0 0 -1
    outer loop
      vertex 9.875 35.125 0
      vertex 0 0 0
      vertex 7.5 50 0
    endloop
  endfacet
  facet normal 0 0 -1
    outer loop
      vertex 0 0 0
      vertex 9.875 9.875 0
      vertex 150 0 0
    endloop
  endfacet
  facet normal 0 0 -1
    outer loop
      vertex 142.5 100 0
      vertex 150 150 0
      vertex 142.5 50 0
    endloop
  endfacet
  facet normal 0 0 -1
    outer loop
      vertex 140.125 114.875 0
      vertex 150 150 0
      vertex 142.5 100 0
    endloop
  endfacet
  facet normal 0 0 -1
    outer loop
      vertex 140.125 140.125 0
      vertex 150 150 0
      vertex 140.125 114.875 0
    endloop
  endfacet
  facet normal 0 0 -1
    outer loop
      vertex 9.875 140.125 0
      vertex 150 150 0
      vertex 140.125 140.125 0
    endloop
  endfacet
  facet normal 0 0 -1
    outer loop
      vertex 0 150 0
      vertex 7.5 100 0
      vertex 0 0 0
    endloop
  endfacet
  facet normal 0 0 -1
    outer loop
      vertex 9.875 140.125 0
      vertex 0 150 0
      vertex 150 150 0
    endloop
  endfacet
  facet normal 0 0 -1
    outer loop
      vertex 9.875 114.875 0
      vertex 0 150 0
      vertex 9.875 140.125 0
    endloop
  endfacet
  facet normal 0 0 -1
    outer loop
      vertex 150 0 0
      vertex 140.125 35.125 0
      vertex 142.5 50 0
    endloop
  endfacet
  facet normal 0 0 -1
    outer loop
      vertex 9.875 35.125 0
      vertex 142.5 50 0
      vertex 140.125 35.125 0
    endloop
  endfacet
  facet normal -0 0 -1
    outer loop
      vertex 142.5 50 0
      vertex 9.875 35.125 0
      vertex 7.5 50 0
    endloop
  endfacet
  facet normal -1 0 0
    outer loop
      vertex 0 0 0
      vertex 0 150 2
      vertex 0 150 0
    endloop
  endfacet
  facet normal -1 -0 0
    outer loop
      vertex 0 150 2
      vertex 0 0 0
      vertex 0 0 2
    endloop
  endfacet
  facet normal 0 1 -0
    outer loop
      vertex 150 150 0
      vertex 0 150 2
      vertex 150 150 2
    endloop
  endfacet
  facet normal 0 1 0
    outer loop
      vertex 0 150 2
      vertex 150 150 0
      vertex 0 150 0
    endloop
  endfacet
  facet normal 0 -1 0
    outer loop
      vertex 0 0 0
      vertex 150 0 2
      vertex 0 0 2
    endloop
  endfacet
  facet normal 0 -1 -0
    outer loop
      vertex 150 0 2
      vertex 0 0 0
      vertex 150 0 0
    endloop
  endfacet
  facet normal -1 0 0
    outer loop
      vertex 142.5 50 0
      vertex 142.5 100 2
      vertex 142.5 100 0
    endloop
  endfacet
  facet normal -1 -0 0
    outer loop
      vertex 142.5 100 2
      vertex 142.5 50 0
      vertex 142.5 50 2
    endloop
  endfacet
  facet normal 1 -0 0
    outer loop
      vertex 7.5 50 2
      vertex 7.5 100 0
      vertex 7.5 100 2
    endloop
  endfacet
  facet normal 1 0 0
    outer loop
      vertex 7.5 100 0
      vertex 7.5 50 2
      vertex 7.5 50 0
    endloop
  endfacet
  facet normal 0 -1 0
    outer loop
      vertex 7.5 100 0
      vertex 142.5 100 2
      vertex 7.5 100 2
    endloop
  endfacet
  facet normal 0 -1 -0
    outer loop
      vertex 142.5 100 2
      vertex 7.5 100 0
      vertex 142.5 100 0
    endloop
  endfacet
  facet normal 0 1 -0
    outer loop
      vertex 142.5 50 0
      vertex 7.5 50 2
      vertex 142.5 50 2
    endloop
  endfacet
  facet normal 0 1 0
    outer loop
      vertex 7.5 50 2
      vertex 142.5 50 0
      vertex 7.5 50 0
    endloop
  endfacet
  facet normal 0 0 -1
    outer loop
      vertex 19.875 19.875 20.125
      vertex 130.125 25.125 20.125
      vertex 130.125 19.875 20.125
    endloop
  endfacet
  facet normal -0 0 -1
    outer loop
      vertex 130.125 25.125 20.125
      vertex 19.875 19.875 20.125
      vertex 19.875 25.125 20.125
    endloop
  endfacet
  facet normal 0.895537 0 -0.444987
    outer loop
      vertex 19.875 19.875 20.125
      vertex 9.875 35.125 0
      vertex 19.875 25.125 20.125
    endloop
  endfacet
  facet normal 0.895537 0 -0.444987
    outer loop
      vertex 9.875 35.125 0
      vertex 19.875 19.875 20.125
      vertex 9.875 9.875 0
    endloop
  endfacet
  facet normal -0.895537 0 -0.444987
    outer loop
      vertex 140.125 35.125 0
      vertex 130.125 19.875 20.125
      vertex 130.125 25.125 20.125
    endloop
  endfacet
  facet normal -0.895537 0 -0.444987
    outer loop
      vertex 130.125 19.875 20.125
      vertex 140.125 35.125 0
      vertex 140.125 9.875 0
    endloop
  endfacet
  facet normal 0 0.895537 -0.444987
    outer loop
      vertex 140.125 9.875 0
      vertex 19.875 19.875 20.125
      vertex 130.125 19.875 20.125
    endloop
  endfacet
  facet normal 0 0.895537 -0.444987
    outer loop
      vertex 19.875 19.875 20.125
      vertex 140.125 9.875 0
      vertex 9.875 9.875 0
    endloop
  endfacet
  facet normal 0 -0.895537 -0.444987
    outer loop
      vertex 9.875 35.125 0
      vertex 130.125 25.125 20.125
      vertex 19.875 25.125 20.125
    endloop
  endfacet
  facet normal 0 -0.895537 -0.444987
    outer loop
      vertex 130.125 25.125 20.125
      vertex 9.875 35.125 0
      vertex 140.125 35.125 0
    endloop
  endfacet
  facet normal -0 0 1
    outer loop
      vertex 17.375 27.625 22
      vertex 132.625 17.375 22
      vertex 132.625 27.625 22
    endloop
  endfacet
  facet normal 0 0 1
    outer loop
      vertex 132.625 17.375 22
      vertex 17.375 27.625 22
      vertex 17.375 17.375 22
    endloop
  endfacet
  facet normal -0.910366 0 0.413803
    outer loop
      vertex 8.28409 36.7159 2
      vertex 17.375 17.375 22
      vertex 17.375 27.625 22
    endloop
  endfacet
  facet normal -0.910366 0 0.413803
    outer loop
      vertex 17.375 17.375 22
      vertex 8.28409 36.7159 2
      vertex 8.28409 8.28409 2
    endloop
  endfacet
  facet normal 0.910365 -0 0.413806
    outer loop
      vertex 132.625 17.375 22
      vertex 141.716 36.7159 2
      vertex 132.625 27.625 22
    endloop
  endfacet
  facet normal 0.910365 0 0.413806
    outer loop
      vertex 141.716 36.7159 2
      vertex 132.625 17.375 22
      vertex 141.716 8.28409 2
    endloop
  endfacet
  facet normal 0 -0.910366 0.413803
    outer loop
      vertex 8.28409 8.28409 2
      vertex 132.625 17.375 22
      vertex 17.375 17.375 22
    endloop
  endfacet
  facet normal 0 -0.910366 0.413803
    outer loop
      vertex 132.625 17.375 22
      vertex 8.28409 8.28409 2
      vertex 141.716 8.28409 2
    endloop
  endfacet
  facet normal 0 0.910367 0.413803
    outer loop
      vertex 141.716 36.7159 2
      vertex 17.375 27.625 22
      vertex 132.625 27.625 22
    endloop
  endfacet
  facet normal 0 0.910367 0.413803
    outer loop
      vertex 17.375 27.625 22
      vertex 141.716 36.7159 2
      vertex 8.28409 36.7159 2
    endloop
  endfacet
  facet normal 0 0 -1
    outer loop
      vertex 19.875 124.875 20.125
      vertex 130.125 130.125 20.125
      vertex 130.125 124.875 20.125
    endloop
  endfacet
  facet normal -0 0 -1
    outer loop
      vertex 130.125 130.125 20.125
      vertex 19.875 124.875 20.125
      vertex 19.875 130.125 20.125
    endloop
  endfacet
  facet normal 0.895537 0 -0.444987
    outer loop
      vertex 19.875 124.875 20.125
      vertex 9.875 140.125 0
      vertex 19.875 130.125 20.125
    endloop
  endfacet
  facet normal 0.895537 0 -0.444987
    outer loop
      vertex 9.875 140.125 0
      vertex 19.875 124.875 20.125
      vertex 9.875 114.875 0
    endloop
  endfacet
  facet normal -0.895537 0 -0.444987
    outer loop
      vertex 140.125 140.125 0
      vertex 130.125 124.875 20.125
      vertex 130.125 130.125 20.125
    endloop
  endfacet
  facet normal -0.895537 0 -0.444987
    outer loop
      vertex 130.125 124.875 20.125
      vertex 140.125 140.125 0
      vertex 140.125 114.875 0
    endloop
  endfacet
  facet normal 0 0.895537 -0.444987
    outer loop
      vertex 140.125 114.875 0
      vertex 19.875 124.875 20.125
      vertex 130.125 124.875 20.125
    endloop
  endfacet
  facet normal 0 0.895537 -0.444987
    outer loop
      vertex 19.875 124.875 20.125
      vertex 140.125 114.875 0
      vertex 9.875 114.875 0
    endloop
  endfacet
  facet normal 0 -0.895537 -0.444987
    outer loop
      vertex 9.875 140.125 0
      vertex 130.125 130.125 20.125
      vertex 19.875 130.125 20.125
    endloop
  endfacet
  facet normal 0 -0.895537 -0.444987
    outer loop
      vertex 130.125 130.125 20.125
      vertex 9.875 140.125 0
      vertex 140.125 140.125 0
    endloop
  endfacet
  facet normal -0 0 1
    outer loop
      vertex 17.375 132.625 22
      vertex 132.625 122.375 22
      vertex 132.625 132.625 22
    endloop
  endfacet
  facet normal 0 0 1
    outer loop
      vertex 132.625 122.375 22
      vertex 17.375 132.625 22
      vertex 17.375 122.375 22
    endloop
  endfacet
  facet normal -0.910366 0 0.413803
    outer loop
      vertex 8.28409 141.716 2
      vertex 17.375 122.375 22
      vertex 17.375 132.625 22
    endloop
  endfacet
  facet normal -0.910366 0 0.413803
    outer loop
      vertex 17.375 122.375 22
      vertex 8.28409 141.716 2
      vertex 8.28409 113.284 2
    endloop
  endfacet
  facet normal 0.910365 -0 0.413806
    outer loop
      vertex 132.625 122.375 22
      vertex 141.716 141.716 2
      vertex 132.625 132.625 22
    endloop
  endfacet
  facet normal 0.910365 0 0.413806
    outer loop
      vertex 141.716 141.716 2
      vertex 132.625 122.375 22
      vertex 141.716 113.284 2
    endloop
  endfacet
  facet normal 0 -0.910365 0.413806
    outer loop
      vertex 8.28409 113.284 2
      vertex 132.625 122.375 22
      vertex 17.375 122.375 22
    endloop
  endfacet
  facet normal 0 -0.910365 0.413806
    outer loop
      vertex 132.625 122.375 22
      vertex 8.28409 113.284 2
      vertex 141.716 113.284 2
    endloop
  endfacet
  facet normal 0 0.910365 0.413806
    outer loop
      vertex 141.716 141.716 2
      vertex 17.375 132.625 22
      vertex 132.625 132.625 22
    endloop
  endfacet
  facet normal 0 0.910365 0.413806
    outer loop
      vertex 17.375 132.625 22
      vertex 141.716 141.716 2
      vertex 8.28409 141.716 2
    endloop
  endfacet
endsolid OpenSCAD_Model
