solid OpenSCAD_Model
  facet normal 1 0 0
    outer loop
      vertex 14 94.5 31
      vertex 14 92.5 31
      vertex 14 94.5 28
    endloop
  endfacet
  facet normal 1 -0 0
    outer loop
      vertex 14 94.5 28
      vertex 14 99.5 27
      vertex 14 99.5 28
    endloop
  endfacet
  facet normal 1 0 0
    outer loop
      vertex 14 99.5 27
      vertex 14 94.5 28
      vertex 14 99.5 22
    endloop
  endfacet
  facet normal 1 0 0
    outer loop
      vertex 14 92.5 21
      vertex 14 99.5 22
      vertex 14 94.5 28
    endloop
  endfacet
  facet normal 1 0 0
    outer loop
      vertex 14 99.5 22
      vertex 14 92.5 21
      vertex 14 99.5 21
    endloop
  endfacet
  facet normal 1 0 0
    outer loop
      vertex 14 92.5 21
      vertex 14 94.5 28
      vertex 14 92.5 31
    endloop
  endfacet
  facet normal 1 -0 0
    outer loop
      vertex 14 99.5 27
      vertex 14 136.5 22
      vertex 14 136.5 27
    endloop
  endfacet
  facet normal 1 0 0
    outer loop
      vertex 14 136.5 22
      vertex 14 99.5 27
      vertex 14 99.5 22
    endloop
  endfacet
  facet normal 1 -0 0
    outer loop
      vertex 14 13.5 27
      vertex 14 62.5 22
      vertex 14 62.5 27
    endloop
  endfacet
  facet normal 1 0 0
    outer loop
      vertex 14 62.5 22
      vertex 14 13.5 27
      vertex 14 13.5 22
    endloop
  endfacet
  facet normal 1 0 0
    outer loop
      vertex 14 67.5 28
      vertex 14 69.5 31
      vertex 14 67.5 31
    endloop
  endfacet
  facet normal 1 0 0
    outer loop
      vertex 14 69.5 31
      vertex 14 67.5 28
      vertex 14 69.5 21
    endloop
  endfacet
  facet normal 1 0 0
    outer loop
      vertex 14 62.5 27
      vertex 14 67.5 28
      vertex 14 62.5 28
    endloop
  endfacet
  facet normal 1 0 0
    outer loop
      vertex 14 62.5 22
      vertex 14 67.5 28
      vertex 14 62.5 27
    endloop
  endfacet
  facet normal 1 0 0
    outer loop
      vertex 14 67.5 28
      vertex 14 62.5 22
      vertex 14 69.5 21
    endloop
  endfacet
  facet normal 1 0 0
    outer loop
      vertex 14 69.5 21
      vertex 14 62.5 22
      vertex 14 62.5 21
    endloop
  endfacet
  facet normal 0 0 1
    outer loop
      vertex 14 94.5 31
      vertex 2 92.5 31
      vertex 14 92.5 31
    endloop
  endfacet
  facet normal 0 0 1
    outer loop
      vertex 2 92.5 31
      vertex 0 94.5 31
      vertex 2 69.5 31
    endloop
  endfacet
  facet normal -0 0 1
    outer loop
      vertex 0 94.5 31
      vertex 2 92.5 31
      vertex 14 94.5 31
    endloop
  endfacet
  facet normal -0 0 1
    outer loop
      vertex 2 69.5 31
      vertex 14 67.5 31
      vertex 14 69.5 31
    endloop
  endfacet
  facet normal 0 0 1
    outer loop
      vertex 2 69.5 31
      vertex 0 67.5 31
      vertex 14 67.5 31
    endloop
  endfacet
  facet normal 0 0 1
    outer loop
      vertex 0 67.5 31
      vertex 2 69.5 31
      vertex 0 94.5 31
    endloop
  endfacet
  facet normal 0 0 -1
    outer loop
      vertex 0 62.5 21
      vertex 8 67.5 21
      vertex 8 62.5 21
    endloop
  endfacet
  facet normal -0 0 -1
    outer loop
      vertex 2 69.5 21
      vertex 0 62.5 21
      vertex 2 92.5 21
    endloop
  endfacet
  facet normal -0 0 -1
    outer loop
      vertex 8 67.5 21
      vertex 0 62.5 21
      vertex 2 69.5 21
    endloop
  endfacet
  facet normal 0 0 -1
    outer loop
      vertex 8.75 67.5 21
      vertex 14 62.5 21
      vertex 8.75 62.5 21
    endloop
  endfacet
  facet normal 0 0 -1
    outer loop
      vertex 14 62.5 21
      vertex 8.75 67.5 21
      vertex 14 69.5 21
    endloop
  endfacet
  facet normal 0 0 -1
    outer loop
      vertex 8 67.5 21
      vertex 14 69.5 21
      vertex 8.75 67.5 21
    endloop
  endfacet
  facet normal -0 0 -1
    outer loop
      vertex 14 69.5 21
      vertex 8 67.5 21
      vertex 2 69.5 21
    endloop
  endfacet
  facet normal 0 0 -1
    outer loop
      vertex 14 92.5 21
      vertex 8.75 94.5 21
      vertex 14 99.5 21
    endloop
  endfacet
  facet normal 0 0 -1
    outer loop
      vertex 14 92.5 21
      vertex 8 94.5 21
      vertex 8.75 94.5 21
    endloop
  endfacet
  facet normal 0 0 -1
    outer loop
      vertex 2 92.5 21
      vertex 8 94.5 21
      vertex 14 92.5 21
    endloop
  endfacet
  facet normal 0 0 -1
    outer loop
      vertex 0 99.5 21
      vertex 8 94.5 21
      vertex 2 92.5 21
    endloop
  endfacet
  facet normal 0 0 -1
    outer loop
      vertex 8 94.5 21
      vertex 0 99.5 21
      vertex 8 99.5 21
    endloop
  endfacet
  facet normal 0 0 -1
    outer loop
      vertex 0 99.5 21
      vertex 2 92.5 21
      vertex 0 62.5 21
    endloop
  endfacet
  facet normal -0 0 -1
    outer loop
      vertex 14 99.5 21
      vertex 8.75 94.5 21
      vertex 8.75 99.5 21
    endloop
  endfacet
  facet normal -1 0 0
    outer loop
      vertex 0 13.5 22
      vertex 0 62.5 27
      vertex 0 62.5 22
    endloop
  endfacet
  facet normal -1 -0 0
    outer loop
      vertex 0 62.5 27
      vertex 0 13.5 22
      vertex 0 13.5 27
    endloop
  endfacet
  facet normal -1 0 0
    outer loop
      vertex 0 94.5 28
      vertex 0 99.5 22
      vertex 0 99.5 21
    endloop
  endfacet
  facet normal -1 0 0
    outer loop
      vertex 0 99.5 22
      vertex 0 94.5 28
      vertex 0 99.5 27
    endloop
  endfacet
  facet normal -1 0 0
    outer loop
      vertex 0 99.5 27
      vertex 0 94.5 28
      vertex 0 99.5 28
    endloop
  endfacet
  facet normal -1 0 0
    outer loop
      vertex 0 94.5 28
      vertex 0 67.5 28
      vertex 0 94.5 31
    endloop
  endfacet
  facet normal -1 0 0
    outer loop
      vertex 0 99.5 21
      vertex 0 67.5 28
      vertex 0 94.5 28
    endloop
  endfacet
  facet normal -1 0 0
    outer loop
      vertex 0 62.5 21
      vertex 0 67.5 28
      vertex 0 99.5 21
    endloop
  endfacet
  facet normal -1 0 0
    outer loop
      vertex 0 62.5 22
      vertex 0 67.5 28
      vertex 0 62.5 21
    endloop
  endfacet
  facet normal -1 0 0
    outer loop
      vertex 0 62.5 27
      vertex 0 67.5 28
      vertex 0 62.5 22
    endloop
  endfacet
  facet normal -1 -0 0
    outer loop
      vertex 0 67.5 28
      vertex 0 62.5 27
      vertex 0 62.5 28
    endloop
  endfacet
  facet normal -1 0 0
    outer loop
      vertex 0 99.5 22
      vertex 0 136.5 27
      vertex 0 136.5 22
    endloop
  endfacet
  facet normal -1 -0 0
    outer loop
      vertex 0 136.5 27
      vertex 0 99.5 22
      vertex 0 99.5 27
    endloop
  endfacet
  facet normal -1 -0 0
    outer loop
      vertex 0 94.5 31
      vertex 0 67.5 28
      vertex 0 67.5 31
    endloop
  endfacet
  facet normal 0 1 -0
    outer loop
      vertex 8.75 94.5 21
      vertex 8 94.5 28
      vertex 8.75 94.5 28
    endloop
  endfacet
  facet normal 0 1 0
    outer loop
      vertex 8 94.5 28
      vertex 8.75 94.5 21
      vertex 8 94.5 21
    endloop
  endfacet
  facet normal 0 1 0
    outer loop
      vertex 8.75 94.5 28
      vertex 14 94.5 31
      vertex 14 94.5 28
    endloop
  endfacet
  facet normal 0 1 0
    outer loop
      vertex 8 94.5 28
      vertex 14 94.5 31
      vertex 8.75 94.5 28
    endloop
  endfacet
  facet normal 0 1 0
    outer loop
      vertex 14 94.5 31
      vertex 8 94.5 28
      vertex 0 94.5 31
    endloop
  endfacet
  facet normal 0 1 0
    outer loop
      vertex 0 94.5 31
      vertex 8 94.5 28
      vertex 0 94.5 28
    endloop
  endfacet
  facet normal 0 -1 0
    outer loop
      vertex 8 67.5 21
      vertex 8.75 67.5 28
      vertex 8 67.5 28
    endloop
  endfacet
  facet normal 0 -1 -0
    outer loop
      vertex 8.75 67.5 28
      vertex 8 67.5 21
      vertex 8.75 67.5 21
    endloop
  endfacet
  facet normal 0 -1 0
    outer loop
      vertex 8 67.5 28
      vertex 0 67.5 31
      vertex 0 67.5 28
    endloop
  endfacet
  facet normal 0 -1 0
    outer loop
      vertex 0 67.5 31
      vertex 8 67.5 28
      vertex 14 67.5 31
    endloop
  endfacet
  facet normal 0 -1 0
    outer loop
      vertex 8.75 67.5 28
      vertex 14 67.5 31
      vertex 8 67.5 28
    endloop
  endfacet
  facet normal 0 -1 -0
    outer loop
      vertex 14 67.5 31
      vertex 8.75 67.5 28
      vertex 14 67.5 28
    endloop
  endfacet
  facet normal 1 -0 0
    outer loop
      vertex 2 69.5 31
      vertex 2 92.5 21
      vertex 2 92.5 31
    endloop
  endfacet
  facet normal 1 0 0
    outer loop
      vertex 2 92.5 21
      vertex 2 69.5 31
      vertex 2 69.5 21
    endloop
  endfacet
  facet normal 0 -1 0
    outer loop
      vertex 2 92.5 21
      vertex 14 92.5 31
      vertex 2 92.5 31
    endloop
  endfacet
  facet normal 0 -1 -0
    outer loop
      vertex 14 92.5 31
      vertex 2 92.5 21
      vertex 14 92.5 21
    endloop
  endfacet
  facet normal 0 1 -0
    outer loop
      vertex 14 69.5 21
      vertex 2 69.5 31
      vertex 14 69.5 31
    endloop
  endfacet
  facet normal 0 1 0
    outer loop
      vertex 2 69.5 31
      vertex 14 69.5 21
      vertex 2 69.5 21
    endloop
  endfacet
  facet normal -0 0 1
    outer loop
      vertex 0 67.5 28
      vertex 8 62.5 28
      vertex 8 67.5 28
    endloop
  endfacet
  facet normal 0 0 1
    outer loop
      vertex 8 62.5 28
      vertex 0 67.5 28
      vertex 0 62.5 28
    endloop
  endfacet
  facet normal -0 0 1
    outer loop
      vertex 8.75 67.5 28
      vertex 14 62.5 28
      vertex 14 67.5 28
    endloop
  endfacet
  facet normal 0 0 1
    outer loop
      vertex 14 62.5 28
      vertex 8.75 67.5 28
      vertex 8.75 62.5 28
    endloop
  endfacet
  facet normal -0 0 1
    outer loop
      vertex 0 99.5 28
      vertex 8 94.5 28
      vertex 8 99.5 28
    endloop
  endfacet
  facet normal 0 0 1
    outer loop
      vertex 8 94.5 28
      vertex 0 99.5 28
      vertex 0 94.5 28
    endloop
  endfacet
  facet normal -0 0 1
    outer loop
      vertex 8.75 99.5 28
      vertex 14 94.5 28
      vertex 14 99.5 28
    endloop
  endfacet
  facet normal 0 0 1
    outer loop
      vertex 14 94.5 28
      vertex 8.75 99.5 28
      vertex 8.75 94.5 28
    endloop
  endfacet
  facet normal 0 -1 0
    outer loop
      vertex 0 62.5 27
      vertex 8 62.5 28
      vertex 0 62.5 28
    endloop
  endfacet
  facet normal 0 -1 -0
    outer loop
      vertex 8 62.5 28
      vertex 0 62.5 27
      vertex 8 62.5 27
    endloop
  endfacet
  facet normal 0 -1 0
    outer loop
      vertex 8.75 62.5 27
      vertex 14 62.5 28
      vertex 8.75 62.5 28
    endloop
  endfacet
  facet normal 0 -1 -0
    outer loop
      vertex 14 62.5 28
      vertex 8.75 62.5 27
      vertex 14 62.5 27
    endloop
  endfacet
  facet normal 0 -1 0
    outer loop
      vertex 8.75 62.5 21
      vertex 14 62.5 22
      vertex 8.75 62.5 22
    endloop
  endfacet
  facet normal 0 -1 -0
    outer loop
      vertex 14 62.5 22
      vertex 8.75 62.5 21
      vertex 14 62.5 21
    endloop
  endfacet
  facet normal 0 -1 0
    outer loop
      vertex 0 62.5 21
      vertex 8 62.5 22
      vertex 0 62.5 22
    endloop
  endfacet
  facet normal 0 -1 -0
    outer loop
      vertex 8 62.5 22
      vertex 0 62.5 21
      vertex 8 62.5 21
    endloop
  endfacet
  facet normal 0 1 -0
    outer loop
      vertex 8.75 62.5 22
      vertex 8 62.5 27
      vertex 8.75 62.5 27
    endloop
  endfacet
  facet normal 0 1 0
    outer loop
      vertex 8 62.5 27
      vertex 8.75 62.5 22
      vertex 8 62.5 22
    endloop
  endfacet
  facet normal 0 1 -0
    outer loop
      vertex 8 99.5 27
      vertex 0 99.5 28
      vertex 8 99.5 28
    endloop
  endfacet
  facet normal 0 1 0
    outer loop
      vertex 0 99.5 28
      vertex 8 99.5 27
      vertex 0 99.5 27
    endloop
  endfacet
  facet normal 0 1 -0
    outer loop
      vertex 8 99.5 21
      vertex 0 99.5 22
      vertex 8 99.5 22
    endloop
  endfacet
  facet normal 0 1 0
    outer loop
      vertex 0 99.5 22
      vertex 8 99.5 21
      vertex 0 99.5 21
    endloop
  endfacet
  facet normal 0 -1 0
    outer loop
      vertex 8 99.5 22
      vertex 8.75 99.5 27
      vertex 8 99.5 27
    endloop
  endfacet
  facet normal 0 -1 -0
    outer loop
      vertex 8.75 99.5 27
      vertex 8 99.5 22
      vertex 8.75 99.5 22
    endloop
  endfacet
  facet normal 0 1 -0
    outer loop
      vertex 14 99.5 27
      vertex 8.75 99.5 28
      vertex 14 99.5 28
    endloop
  endfacet
  facet normal 0 1 0
    outer loop
      vertex 8.75 99.5 28
      vertex 14 99.5 27
      vertex 8.75 99.5 27
    endloop
  endfacet
  facet normal 0 1 -0
    outer loop
      vertex 14 99.5 21
      vertex 8.75 99.5 22
      vertex 14 99.5 22
    endloop
  endfacet
  facet normal 0 1 0
    outer loop
      vertex 8.75 99.5 22
      vertex 14 99.5 21
      vertex 8.75 99.5 21
    endloop
  endfacet
  facet normal -1 0 0
    outer loop
      vertex 8.75 94.5 21
      vertex 8.75 99.5 22
      vertex 8.75 99.5 21
    endloop
  endfacet
  facet normal -1 -0 0
    outer loop
      vertex 8.75 99.5 22
      vertex 8.75 94.5 21
      vertex 8.75 99.5 27
    endloop
  endfacet
  facet normal -1 0 0
    outer loop
      vertex 8.75 94.5 28
      vertex 8.75 99.5 27
      vertex 8.75 94.5 21
    endloop
  endfacet
  facet normal -1 0 0
    outer loop
      vertex 8.75 99.5 27
      vertex 8.75 94.5 28
      vertex 8.75 99.5 28
    endloop
  endfacet
  facet normal -1 0 0
    outer loop
      vertex 8.75 62.5 22
      vertex 8.75 67.5 21
      vertex 8.75 62.5 21
    endloop
  endfacet
  facet normal -1 0 0
    outer loop
      vertex 8.75 67.5 21
      vertex 8.75 62.5 22
      vertex 8.75 67.5 28
    endloop
  endfacet
  facet normal -1 0 0
    outer loop
      vertex 8.75 62.5 27
      vertex 8.75 67.5 28
      vertex 8.75 62.5 22
    endloop
  endfacet
  facet normal -1 -0 0
    outer loop
      vertex 8.75 67.5 28
      vertex 8.75 62.5 27
      vertex 8.75 62.5 28
    endloop
  endfacet
  facet normal 1 -0 0
    outer loop
      vertex 8 94.5 28
      vertex 8 99.5 27
      vertex 8 99.5 28
    endloop
  endfacet
  facet normal 1 0 0
    outer loop
      vertex 8 99.5 27
      vertex 8 94.5 28
      vertex 8 99.5 22
    endloop
  endfacet
  facet normal 1 0 0
    outer loop
      vertex 8 94.5 21
      vertex 8 99.5 22
      vertex 8 94.5 28
    endloop
  endfacet
  facet normal 1 0 0
    outer loop
      vertex 8 99.5 22
      vertex 8 94.5 21
      vertex 8 99.5 21
    endloop
  endfacet
  facet normal 1 0 0
    outer loop
      vertex 8 62.5 27
      vertex 8 67.5 28
      vertex 8 62.5 28
    endloop
  endfacet
  facet normal 1 0 0
    outer loop
      vertex 8 67.5 28
      vertex 8 62.5 27
      vertex 8 67.5 21
    endloop
  endfacet
  facet normal 1 -0 0
    outer loop
      vertex 8 62.5 22
      vertex 8 67.5 21
      vertex 8 62.5 27
    endloop
  endfacet
  facet normal 1 0 0
    outer loop
      vertex 8 67.5 21
      vertex 8 62.5 22
      vertex 8 62.5 21
    endloop
  endfacet
  facet normal -0 0 1
    outer loop
      vertex 8.75 62.5 27
      vertex 14 13.5 27
      vertex 14 62.5 27
    endloop
  endfacet
  facet normal -0 0 1
    outer loop
      vertex 8 62.5 27
      vertex 14 13.5 27
      vertex 8.75 62.5 27
    endloop
  endfacet
  facet normal 0 0 1
    outer loop
      vertex 0 13.5 27
      vertex 8 62.5 27
      vertex 0 62.5 27
    endloop
  endfacet
  facet normal 0 0 1
    outer loop
      vertex 8 62.5 27
      vertex 0 13.5 27
      vertex 14 13.5 27
    endloop
  endfacet
  facet normal 0 0 -1
    outer loop
      vertex 14 13.5 22
      vertex 8.75 62.5 22
      vertex 14 62.5 22
    endloop
  endfacet
  facet normal 0 0 -1
    outer loop
      vertex 14 13.5 22
      vertex 8 62.5 22
      vertex 8.75 62.5 22
    endloop
  endfacet
  facet normal 0 0 -1
    outer loop
      vertex 0 13.5 22
      vertex 8 62.5 22
      vertex 14 13.5 22
    endloop
  endfacet
  facet normal -0 0 -1
    outer loop
      vertex 8 62.5 22
      vertex 0 13.5 22
      vertex 0 62.5 22
    endloop
  endfacet
  facet normal 0 -1 0
    outer loop
      vertex 0 13.5 22
      vertex 14 13.5 27
      vertex 0 13.5 27
    endloop
  endfacet
  facet normal 0 -1 -0
    outer loop
      vertex 14 13.5 27
      vertex 0 13.5 22
      vertex 14 13.5 22
    endloop
  endfacet
  facet normal 0 0 1
    outer loop
      vertex 14 136.5 27
      vertex 8.75 99.5 27
      vertex 14 99.5 27
    endloop
  endfacet
  facet normal 0 0 1
    outer loop
      vertex 14 136.5 27
      vertex 8 99.5 27
      vertex 8.75 99.5 27
    endloop
  endfacet
  facet normal -0 0 1
    outer loop
      vertex 0 136.5 27
      vertex 8 99.5 27
      vertex 14 136.5 27
    endloop
  endfacet
  facet normal 0 0 1
    outer loop
      vertex 8 99.5 27
      vertex 0 136.5 27
      vertex 0 99.5 27
    endloop
  endfacet
  facet normal 0 0 -1
    outer loop
      vertex 8.75 99.5 22
      vertex 14 136.5 22
      vertex 14 99.5 22
    endloop
  endfacet
  facet normal 0 0 -1
    outer loop
      vertex 8 99.5 22
      vertex 14 136.5 22
      vertex 8.75 99.5 22
    endloop
  endfacet
  facet normal 0 0 -1
    outer loop
      vertex 0 136.5 22
      vertex 8 99.5 22
      vertex 0 99.5 22
    endloop
  endfacet
  facet normal 0 0 -1
    outer loop
      vertex 8 99.5 22
      vertex 0 136.5 22
      vertex 14 136.5 22
    endloop
  endfacet
  facet normal 0 1 -0
    outer loop
      vertex 14 136.5 22
      vertex 0 136.5 27
      vertex 14 136.5 27
    endloop
  endfacet
  facet normal 0 1 0
    outer loop
      vertex 0 136.5 27
      vertex 14 136.5 22
      vertex 0 136.5 22
    endloop
  endfacet
endsolid OpenSCAD_Model
